<svg width="265" height="15" viewBox="0 0 265 15" fill="none" xmlns="http://www.w3.org/2000/svg">
<path d="M3.8595 12L0.4805 1.181H2.201L4.4795 8.28L5.0685 10.6205L5.642 8.2955L7.936 1.181H9.61L6.231 12H3.8595ZM13.8011 12V3.475H15.3666V12H13.8011ZM10.6546 12V10.729H18.2961V12H10.6546ZM11.7861 4.746V3.475H14.5761V4.746H11.7861ZM13.6926 2.018V0.3285H15.4441V2.018H13.6926ZM24.0526 12.186C23.1743 12.186 22.4148 12.0103 21.7741 11.659C21.1334 11.2973 20.6426 10.7858 20.3016 10.1245C19.9606 9.45283 19.7901 8.652 19.7901 7.722C19.7901 6.792 19.9606 5.99633 20.3016 5.335C20.6529 4.67367 21.1489 4.16733 21.7896 3.816C22.4406 3.46467 23.2156 3.289 24.1146 3.289C25.4889 3.289 26.5119 3.67133 27.1836 4.436C27.8553 5.19033 28.1498 6.22883 28.0671 7.5515H21.0301L21.0456 6.3735L26.4706 6.389C26.4293 5.84133 26.1916 5.40217 25.7576 5.0715C25.3236 4.74083 24.7759 4.5755 24.1146 4.5755C23.2259 4.5755 22.5439 4.8545 22.0686 5.4125C21.5933 5.9705 21.3556 6.761 21.3556 7.784C21.3556 8.39367 21.4589 8.93617 21.6656 9.4115C21.8826 9.8765 22.1926 10.2382 22.5956 10.4965C22.9986 10.7548 23.4843 10.884 24.0526 10.884C24.7243 10.884 25.2823 10.7238 25.7266 10.4035C26.1813 10.0832 26.4603 9.64917 26.5636 9.1015H28.1291C27.9948 10.0625 27.5659 10.8168 26.8426 11.3645C26.1193 11.9122 25.1893 12.186 24.0526 12.186ZM30.1192 12L28.7087 3.444H30.1657L30.9097 8.28L31.2197 10.357L31.6537 8.28L32.7387 3.444H34.1492L35.2807 8.28L35.7147 10.3725L36.0092 8.28L36.7532 3.444H38.1637L36.7532 12H34.9087L33.7927 7.319L33.4362 5.0095L33.0797 7.319L31.9637 12H30.1192ZM47.7083 12L48.5143 1.181H50.6688L52.0483 7.5825L52.3738 9.6905L52.7148 7.5825L54.0633 1.181H56.1868L57.0083 12H55.3808L55.0243 5.2265L54.9623 2.8395L54.4973 5.2265L53.0248 12H51.6298L50.1728 5.2265L49.7388 2.8085L49.6458 5.2265L49.3048 12H47.7083ZM61.7883 12.186C60.91 12.186 60.1505 12.0052 59.5098 11.6435C58.8795 11.2818 58.3938 10.7703 58.0528 10.109C57.7118 9.43733 57.5413 8.64683 57.5413 7.7375C57.5413 6.8075 57.7118 6.017 58.0528 5.366C58.3938 4.70467 58.8795 4.19317 59.5098 3.8315C60.1505 3.46983 60.9152 3.289 61.8038 3.289C63.1265 3.289 64.165 3.68683 64.9193 4.4825C65.6737 5.26783 66.0508 6.35283 66.0508 7.7375C66.0508 8.64683 65.8803 9.43733 65.5393 10.109C65.1983 10.7703 64.7075 11.2818 64.0668 11.6435C63.4365 12.0052 62.677 12.186 61.7883 12.186ZM61.8038 10.884C62.6305 10.884 63.2815 10.605 63.7568 10.047C64.2425 9.47867 64.4853 8.70883 64.4853 7.7375C64.4853 6.75583 64.2425 5.986 63.7568 5.428C63.2815 4.87 62.6305 4.591 61.8038 4.591C60.9668 4.591 60.3107 4.87 59.8353 5.428C59.36 5.986 59.1223 6.75583 59.1223 7.7375C59.1223 8.70883 59.36 9.47867 59.8353 10.047C60.3107 10.605 60.9668 10.884 61.8038 10.884ZM73.5899 7.133V6.11C73.5899 5.66567 73.4556 5.30917 73.1869 5.0405C72.9182 4.7615 72.5307 4.622 72.0244 4.622C71.3837 4.622 70.8102 4.86483 70.3039 5.3505C69.7976 5.82583 69.3946 6.55433 69.0949 7.536L68.8779 5.955C69.1052 5.366 69.3791 4.87517 69.6994 4.4825C70.0301 4.08983 70.4072 3.79533 70.8309 3.599C71.2649 3.39233 71.7402 3.289 72.2569 3.289C73.1146 3.289 73.8121 3.537 74.3494 4.033C74.8867 4.51867 75.1554 5.211 75.1554 6.11V7.133H73.5899ZM67.8239 12V3.475H69.2964L69.3894 5.4125V12H67.8239ZM80.8189 12.186C79.9406 12.186 79.1811 12.0103 78.5404 11.659C77.8998 11.2973 77.4089 10.7858 77.0679 10.1245C76.7269 9.45283 76.5564 8.652 76.5564 7.722C76.5564 6.792 76.7269 5.99633 77.0679 5.335C77.4193 4.67367 77.9153 4.16733 78.5559 3.816C79.2069 3.46467 79.9819 3.289 80.8809 3.289C82.2553 3.289 83.2783 3.67133 83.9499 4.436C84.6216 5.19033 84.9161 6.22883 84.8334 7.5515H77.7964L77.8119 6.3735L83.2369 6.389C83.1956 5.84133 82.9579 5.40217 82.5239 5.0715C82.0899 4.74083 81.5423 4.5755 80.8809 4.5755C79.9923 4.5755 79.3103 4.8545 78.8349 5.4125C78.3596 5.9705 78.1219 6.761 78.1219 7.784C78.1219 8.39367 78.2253 8.93617 78.4319 9.4115C78.6489 9.8765 78.9589 10.2382 79.3619 10.4965C79.7649 10.7548 80.2506 10.884 80.8189 10.884C81.4906 10.884 82.0486 10.7238 82.4929 10.4035C82.9476 10.0832 83.2266 9.64917 83.3299 9.1015H84.8954C84.7611 10.0625 84.3323 10.8168 83.6089 11.3645C82.8856 11.9122 81.9556 12.186 80.8189 12.186ZM99.8341 12.186C98.8834 12.186 98.0567 11.9483 97.354 11.473C96.6617 10.9873 96.1244 10.326 95.7421 9.489C95.37 8.64167 95.184 7.67033 95.184 6.575C95.184 5.43833 95.3804 4.4515 95.773 3.6145C96.1657 2.7775 96.7134 2.13167 97.4161 1.677C98.129 1.22233 98.9557 0.994999 99.8961 0.994999C100.65 0.994999 101.332 1.14483 101.942 1.4445C102.562 1.73383 103.063 2.1575 103.446 2.7155C103.838 3.26317 104.066 3.91933 104.128 4.684H102.33C102.247 3.99167 101.989 3.43883 101.555 3.0255C101.121 2.60183 100.563 2.39 99.8805 2.39C99.2916 2.39 98.7697 2.5605 98.3151 2.9015C97.8707 3.23217 97.5246 3.71267 97.2766 4.343C97.0285 4.97333 96.9045 5.7225 96.9045 6.5905C96.9045 7.4585 97.0285 8.20767 97.2766 8.838C97.5349 9.46833 97.8862 9.954 98.3306 10.295C98.7749 10.6257 99.2761 10.791 99.8341 10.791C100.32 10.791 100.743 10.6928 101.105 10.4965C101.467 10.2898 101.756 10.0057 101.973 9.644C102.2 9.28233 102.335 8.85867 102.376 8.373H104.19C104.117 9.13767 103.895 9.80933 103.523 10.388C103.151 10.9563 102.65 11.4007 102.02 11.721C101.4 12.031 100.671 12.186 99.8341 12.186ZM109.094 12.186C108.215 12.186 107.456 12.0052 106.815 11.6435C106.185 11.2818 105.699 10.7703 105.358 10.109C105.017 9.43733 104.847 8.64683 104.847 7.7375C104.847 6.8075 105.017 6.017 105.358 5.366C105.699 4.70467 106.185 4.19317 106.815 3.8315C107.456 3.46983 108.22 3.289 109.109 3.289C110.432 3.289 111.47 3.68683 112.225 4.4825C112.979 5.26783 113.356 6.35283 113.356 7.7375C113.356 8.64683 113.186 9.43733 112.845 10.109C112.504 10.7703 112.013 11.2818 111.372 11.6435C110.742 12.0052 109.982 12.186 109.094 12.186ZM109.109 10.884C109.936 10.884 110.587 10.605 111.062 10.047C111.548 9.47867 111.791 8.70883 111.791 7.7375C111.791 6.75583 111.548 5.986 111.062 5.428C110.587 4.87 109.936 4.591 109.109 4.591C108.272 4.591 107.616 4.87 107.141 5.428C106.665 5.986 106.428 6.75583 106.428 7.7375C106.428 8.70883 106.665 9.47867 107.141 10.047C107.616 10.605 108.272 10.884 109.109 10.884ZM121.391 12V5.769C121.391 5.397 121.324 5.10767 121.19 4.901C121.066 4.69433 120.869 4.591 120.601 4.591C120.229 4.591 119.893 4.82867 119.593 5.304C119.304 5.77933 119.102 6.5285 118.989 7.5515L118.849 6.234C118.88 5.304 119.097 4.58067 119.5 4.064C119.913 3.54733 120.42 3.289 121.019 3.289C121.577 3.289 122.016 3.49567 122.337 3.909C122.667 4.312 122.833 4.89067 122.833 5.645V12H121.391ZM114.308 12V3.475H115.687L115.749 5.1335V12H114.308ZM117.857 12V5.769C117.857 5.37633 117.785 5.08183 117.64 4.8855C117.506 4.68917 117.299 4.591 117.02 4.591C116.627 4.591 116.292 4.839 116.013 5.335C115.734 5.831 115.537 6.56983 115.424 7.5515L115.393 6.1875C115.413 5.57783 115.522 5.056 115.718 4.622C115.914 4.188 116.168 3.85733 116.478 3.63C116.788 3.40267 117.118 3.289 117.47 3.289C118.048 3.289 118.493 3.50083 118.803 3.9245C119.123 4.33783 119.283 4.90617 119.283 5.6295V12H117.857ZM128.527 3.289C129.292 3.289 129.958 3.48017 130.527 3.8625C131.105 4.2345 131.56 4.75633 131.891 5.428C132.221 6.09967 132.387 6.8695 132.387 7.7375C132.387 8.59517 132.221 9.35983 131.891 10.0315C131.56 10.7032 131.105 11.2302 130.527 11.6125C129.958 11.9948 129.292 12.186 128.527 12.186C127.949 12.186 127.416 12.0672 126.931 11.8295C126.455 11.5918 126.063 11.2663 125.753 10.853V14.759H124.187V3.475H125.675L125.722 4.6375C126.032 4.22417 126.43 3.89867 126.915 3.661C127.401 3.413 127.938 3.289 128.527 3.289ZM128.186 10.8685C128.713 10.8685 129.173 10.7342 129.566 10.4655C129.958 10.1968 130.263 9.83 130.48 9.365C130.697 8.88967 130.806 8.34717 130.806 7.7375C130.806 7.1175 130.697 6.575 130.48 6.11C130.263 5.63467 129.958 5.26783 129.566 5.0095C129.173 4.74083 128.713 4.6065 128.186 4.6065C127.649 4.6065 127.158 4.7615 126.714 5.0715C126.28 5.37117 125.959 5.7845 125.753 6.3115V9.1325C125.959 9.66983 126.28 10.0935 126.714 10.4035C127.158 10.7135 127.649 10.8685 128.186 10.8685ZM136.717 12V0.6075H138.283V12H136.717ZM133.571 12V10.729H141.445V12H133.571ZM134.702 1.8785V0.6075H137.492V1.8785H134.702ZM147.046 12.186C146.168 12.186 145.408 12.0103 144.768 11.659C144.127 11.2973 143.636 10.7858 143.295 10.1245C142.954 9.45283 142.784 8.652 142.784 7.722C142.784 6.792 142.954 5.99633 143.295 5.335C143.647 4.67367 144.143 4.16733 144.783 3.816C145.434 3.46467 146.209 3.289 147.108 3.289C148.483 3.289 149.506 3.67133 150.177 4.436C150.849 5.19033 151.143 6.22883 151.061 7.5515H144.024L144.039 6.3735L149.464 6.389C149.423 5.84133 149.185 5.40217 148.751 5.0715C148.317 4.74083 147.77 4.5755 147.108 4.5755C146.22 4.5755 145.538 4.8545 145.062 5.4125C144.587 5.9705 144.349 6.761 144.349 7.784C144.349 8.39367 144.453 8.93617 144.659 9.4115C144.876 9.8765 145.186 10.2382 145.589 10.4965C145.992 10.7548 146.478 10.884 147.046 10.884C147.718 10.884 148.276 10.7238 148.72 10.4035C149.175 10.0832 149.454 9.64917 149.557 9.1015H151.123C150.988 10.0625 150.56 10.8168 149.836 11.3645C149.113 11.9122 148.183 12.186 147.046 12.186ZM157.112 12C156.585 12 156.135 11.8967 155.763 11.69C155.391 11.473 155.112 11.1682 154.926 10.7755C154.74 10.3828 154.647 9.923 154.647 9.396V1.863L156.213 1.0105V9.396C156.213 9.644 156.249 9.87133 156.321 10.078C156.394 10.2847 156.533 10.4448 156.74 10.5585C156.957 10.6722 157.272 10.729 157.685 10.729H160.243V12H157.112ZM152.632 4.746V3.475H158.879V4.746H152.632ZM165.968 12.186C165.09 12.186 164.331 12.0103 163.69 11.659C163.049 11.2973 162.558 10.7858 162.217 10.1245C161.876 9.45283 161.706 8.652 161.706 7.722C161.706 6.792 161.876 5.99633 162.217 5.335C162.569 4.67367 163.065 4.16733 163.705 3.816C164.356 3.46467 165.131 3.289 166.03 3.289C167.405 3.289 168.428 3.67133 169.099 4.436C169.771 5.19033 170.066 6.22883 169.983 7.5515H162.946L162.961 6.3735L168.386 6.389C168.345 5.84133 168.107 5.40217 167.673 5.0715C167.239 4.74083 166.692 4.5755 166.03 4.5755C165.142 4.5755 164.46 4.8545 163.984 5.4125C163.509 5.9705 163.271 6.761 163.271 7.784C163.271 8.39367 163.375 8.93617 163.581 9.4115C163.798 9.8765 164.108 10.2382 164.511 10.4965C164.914 10.7548 165.4 10.884 165.968 10.884C166.64 10.884 167.198 10.7238 167.642 10.4035C168.097 10.0832 168.376 9.64917 168.479 9.1015H170.045C169.911 10.0625 169.482 10.8168 168.758 11.3645C168.035 11.9122 167.105 12.186 165.968 12.186ZM174.887 3.289C175.476 3.289 176.013 3.40783 176.499 3.6455C176.985 3.87283 177.377 4.19317 177.677 4.6065V0.6075H179.227V12H177.754L177.708 10.8065C177.408 11.2198 177.01 11.5557 176.514 11.814C176.029 12.062 175.486 12.186 174.887 12.186C174.133 12.186 173.466 11.9948 172.887 11.6125C172.309 11.2302 171.854 10.7032 171.523 10.0315C171.203 9.35983 171.043 8.59517 171.043 7.7375C171.043 6.8695 171.203 6.09967 171.523 5.428C171.854 4.75633 172.309 4.2345 172.887 3.8625C173.466 3.48017 174.133 3.289 174.887 3.289ZM175.228 10.8685C175.786 10.8685 176.282 10.7135 176.716 10.4035C177.15 10.0832 177.47 9.65433 177.677 9.117V6.3425C177.47 5.79483 177.15 5.37117 176.716 5.0715C176.282 4.7615 175.786 4.6065 175.228 4.6065C174.711 4.6065 174.257 4.74083 173.864 5.0095C173.471 5.26783 173.161 5.63467 172.934 6.11C172.717 6.575 172.608 7.1175 172.608 7.7375C172.608 8.34717 172.717 8.88967 172.934 9.365C173.161 9.83 173.471 10.1968 173.864 10.4655C174.257 10.7342 174.711 10.8685 175.228 10.8685ZM191.655 8.0475V6.6525H194.476C195.168 6.6525 195.726 6.46133 196.15 6.079C196.573 5.69667 196.785 5.1955 196.785 4.5755C196.785 3.97617 196.589 3.49567 196.196 3.134C195.803 2.762 195.282 2.576 194.631 2.576H191.655V1.181H194.631C195.416 1.181 196.098 1.3205 196.677 1.5995C197.255 1.8785 197.705 2.27117 198.025 2.7775C198.345 3.28383 198.506 3.88317 198.506 4.5755C198.506 5.26783 198.34 5.8775 198.01 6.4045C197.679 6.92117 197.209 7.32417 196.599 7.6135C196 7.90283 195.297 8.0475 194.491 8.0475H191.655ZM190.477 12V1.181H192.12V12H190.477ZM206.045 7.133V6.11C206.045 5.66567 205.91 5.30917 205.642 5.0405C205.373 4.7615 204.985 4.622 204.479 4.622C203.838 4.622 203.265 4.86483 202.759 5.3505C202.252 5.82583 201.849 6.55433 201.55 7.536L201.333 5.955C201.56 5.366 201.834 4.87517 202.154 4.4825C202.485 4.08983 202.862 3.79533 203.286 3.599C203.72 3.39233 204.195 3.289 204.712 3.289C205.569 3.289 206.267 3.537 206.804 4.033C207.341 4.51867 207.61 5.211 207.61 6.11V7.133H206.045ZM200.279 12V3.475H201.751L201.844 5.4125V12H200.279ZM213.165 12.186C212.287 12.186 211.527 12.0052 210.887 11.6435C210.256 11.2818 209.771 10.7703 209.43 10.109C209.089 9.43733 208.918 8.64683 208.918 7.7375C208.918 6.8075 209.089 6.017 209.43 5.366C209.771 4.70467 210.256 4.19317 210.887 3.8315C211.527 3.46983 212.292 3.289 213.181 3.289C214.503 3.289 215.542 3.68683 216.296 4.4825C217.051 5.26783 217.428 6.35283 217.428 7.7375C217.428 8.64683 217.257 9.43733 216.916 10.109C216.575 10.7703 216.084 11.2818 215.444 11.6435C214.813 12.0052 214.054 12.186 213.165 12.186ZM213.181 10.884C214.007 10.884 214.658 10.605 215.134 10.047C215.619 9.47867 215.862 8.70883 215.862 7.7375C215.862 6.75583 215.619 5.986 215.134 5.428C214.658 4.87 214.007 4.591 213.181 4.591C212.344 4.591 211.688 4.87 211.212 5.428C210.737 5.986 210.499 6.75583 210.499 7.7375C210.499 8.70883 210.737 9.47867 211.212 10.047C211.688 10.605 212.344 10.884 213.181 10.884ZM224.982 3.475V12.1085C224.982 12.6355 224.884 13.0953 224.688 13.488C224.502 13.891 224.223 14.201 223.851 14.418C223.479 14.6453 223.014 14.759 222.456 14.759H218.968V13.488H221.991C222.445 13.488 222.797 13.395 223.045 13.209C223.293 13.0333 223.417 12.682 223.417 12.155V3.475H224.982ZM221.402 4.746V3.475H224.192V4.746H221.402ZM223.324 2.018V0.3285H225.075V2.018H223.324ZM232.196 12.186C231.317 12.186 230.558 12.0103 229.917 11.659C229.277 11.2973 228.786 10.7858 228.445 10.1245C228.104 9.45283 227.933 8.652 227.933 7.722C227.933 6.792 228.104 5.99633 228.445 5.335C228.796 4.67367 229.292 4.16733 229.933 3.816C230.584 3.46467 231.359 3.289 232.258 3.289C233.632 3.289 234.655 3.67133 235.327 4.436C235.998 5.19033 236.293 6.22883 236.21 7.5515H229.173L229.189 6.3735L234.614 6.389C234.572 5.84133 234.335 5.40217 233.901 5.0715C233.467 4.74083 232.919 4.5755 232.258 4.5755C231.369 4.5755 230.687 4.8545 230.212 5.4125C229.736 5.9705 229.499 6.761 229.499 7.784C229.499 8.39367 229.602 8.93617 229.809 9.4115C230.026 9.8765 230.336 10.2382 230.739 10.4965C231.142 10.7548 231.627 10.884 232.196 10.884C232.867 10.884 233.425 10.7238 233.87 10.4035C234.324 10.0832 234.603 9.64917 234.707 9.1015H236.272C236.138 10.0625 235.709 10.8168 234.986 11.3645C234.262 11.9122 233.332 12.186 232.196 12.186ZM241.812 12.186C240.934 12.186 240.169 12.0052 239.518 11.6435C238.877 11.2715 238.381 10.7548 238.03 10.0935C237.679 9.42183 237.503 8.6365 237.503 7.7375C237.503 6.81783 237.684 6.02733 238.045 5.366C238.407 4.69433 238.913 4.18283 239.564 3.8315C240.215 3.46983 240.975 3.289 241.843 3.289C242.535 3.289 243.155 3.41817 243.703 3.6765C244.261 3.9245 244.71 4.281 245.051 4.746C245.403 5.211 245.604 5.76383 245.656 6.4045H244.09C244.008 5.82583 243.76 5.3815 243.346 5.0715C242.943 4.75117 242.442 4.591 241.843 4.591C241.285 4.591 240.799 4.72017 240.386 4.9785C239.973 5.2265 239.652 5.583 239.425 6.048C239.198 6.513 239.084 7.07617 239.084 7.7375C239.084 8.71917 239.332 9.489 239.828 10.047C240.334 10.605 240.996 10.884 241.812 10.884C242.184 10.884 242.53 10.8117 242.85 10.667C243.171 10.5223 243.445 10.3157 243.672 10.047C243.899 9.768 244.054 9.44767 244.137 9.086H245.718C245.615 9.72667 245.377 10.2795 245.005 10.7445C244.643 11.1992 244.183 11.5557 243.625 11.814C243.078 12.062 242.473 12.186 241.812 12.186ZM251.722 12C251.195 12 250.746 11.8967 250.374 11.69C250.002 11.473 249.723 11.1682 249.537 10.7755C249.351 10.3828 249.258 9.923 249.258 9.396V1.863L250.823 1.0105V9.396C250.823 9.644 250.86 9.87133 250.932 10.078C251.004 10.2847 251.144 10.4448 251.35 10.5585C251.567 10.6722 251.883 10.729 252.296 10.729H254.853V12H251.722ZM247.243 4.746V3.475H253.489V4.746H247.243ZM260.718 12.186C259.964 12.186 259.298 12.0568 258.719 11.7985C258.151 11.5298 257.711 11.1578 257.401 10.6825C257.091 10.1968 256.931 9.61817 256.921 8.9465H258.393C258.393 9.57683 258.605 10.0728 259.029 10.4345C259.453 10.7962 260.011 10.977 260.703 10.977C261.292 10.977 261.762 10.8685 262.113 10.6515C262.475 10.4242 262.656 10.1193 262.656 9.737C262.656 9.43733 262.553 9.19967 262.346 9.024C262.15 8.838 261.886 8.69333 261.555 8.59C261.225 8.48667 260.858 8.39883 260.455 8.3265C260.062 8.24383 259.664 8.15083 259.261 8.0475C258.869 7.93383 258.507 7.79433 258.176 7.629C257.846 7.45333 257.577 7.22083 257.37 6.9315C257.164 6.64217 257.06 6.265 257.06 5.8C257.06 5.31433 257.2 4.8855 257.479 4.5135C257.758 4.13117 258.151 3.8315 258.657 3.6145C259.174 3.3975 259.783 3.289 260.486 3.289C261.55 3.289 262.403 3.537 263.043 4.033C263.694 4.51867 264.046 5.19033 264.097 6.048H262.625C262.594 5.552 262.387 5.16967 262.005 4.901C261.633 4.622 261.127 4.4825 260.486 4.4825C259.887 4.4825 259.427 4.60133 259.106 4.839C258.796 5.07667 258.641 5.37633 258.641 5.738C258.641 6.017 258.745 6.23917 258.951 6.4045C259.158 6.5595 259.427 6.6835 259.757 6.7765C260.088 6.85917 260.45 6.93667 260.842 7.009C261.245 7.071 261.643 7.15367 262.036 7.257C262.439 7.36033 262.806 7.505 263.136 7.691C263.467 7.86667 263.731 8.1095 263.927 8.4195C264.134 8.7295 264.237 9.1325 264.237 9.6285C264.237 10.4242 263.917 11.0493 263.276 11.504C262.635 11.9587 261.783 12.186 260.718 12.186Z" fill="#64FFDA"/>
</svg>
